# xmcd
#
# Track frame offsets:
#	150
#	17940
#	36439
#	51868
#	68324
#	85538
#	101480
#	116100
#	137830
#	154695
#	169574
#	189621
#
# Disc length: 2740 seconds
#
# Revision: 1
# Processed by: cddbd v1.4PL0 Copyright (c) Steve Scherf et al.
# Submitted via: audiograbber 1.80.04
#
DISCID=970ab20c
DTITLE=Charlie Landsborough - Still Can't Say Goodbye
DYEAR=1999
DGENRE=Country
TTITLE0=One True love
TTITLE1=Why Worry
TTITLE2=Muddy Roads
TTITLE3=Blue Umbrella
TTITLE4=I Still Can't Say Goodbye
TTITLE5=I've Been Rained On Too
TTITLE6=Angels With One Wing
TTITLE7=Like I Used To Do
TTITLE8=Five Fingers
TTITLE9=It'll Be Her
TTITLE10=Time To Learn
TTITLE11=When I'm Dead And Gone
EXTD=
EXTT0=
EXTT1=
EXTT2=
EXTT3=
EXTT4=
EXTT5=
EXTT6=
EXTT7=
EXTT8=
EXTT9=
EXTT10=
EXTT11=
PLAYORDER=
